<svg xmlns="http://www.w3.org/2000/svg" width="1600" height="900" viewBox="0 0 1600 900" role="img" aria-label="XNY Farms fields at sunrise">
  <defs>
    <linearGradient id="sky" x1="0" y1="0" x2="0" y2="1">
      <stop offset="0" stop-color="#f6e7c1"/>
      <stop offset="0.55" stop-color="#e6b422"/>
      <stop offset="1" stop-color="#b8860b"/>
    </linearGradient>
    <linearGradient id="field" x1="0" y1="0" x2="0" y2="1">
      <stop offset="0" stop-color="#4a7c2f"/>
      <stop offset="1" stop-color="#2d5016"/>
    </linearGradient>
  </defs>
  <rect width="1600" height="900" fill="url(#sky)"/>
  <circle cx="1180" cy="300" r="120" fill="#fff4d6" opacity="0.85"/>
  <path d="M0 620 Q400 540 800 600 T1600 590 V900 H0 Z" fill="#3a6b1e"/>
  <path d="M0 700 Q450 640 900 690 T1600 680 V900 H0 Z" fill="url(#field)"/>
  <g stroke="#2d5016" stroke-width="3" opacity="0.5">
    <path d="M0 760 Q800 720 1600 760" fill="none"/>
    <path d="M0 810 Q800 775 1600 810" fill="none"/>
    <path d="M0 860 Q800 830 1600 860" fill="none"/>
  </g>
  <g fill="#1f3d13" opacity="0.85">
    <ellipse cx="250" cy="640" rx="60" ry="80"/>
    <rect x="242" y="640" width="16" height="60"/>
    <ellipse cx="1350" cy="620" rx="70" ry="95"/>
    <rect x="1340" y="620" width="18" height="70"/>
  </g>
</svg>
